<?xml version="1.0" encoding="UTF-8"?>
<!DOCTYPE svg PUBLIC "-//W3C//DTD SVG 1.1//EN" "http://www.w3.org/Graphics/SVG/1.1/DTD/svg11.dtd">
<!-- Creator: CorelDRAW X7 -->
<svg xmlns="http://www.w3.org/2000/svg" xml:space="preserve" width="215.9mm" height="279.4mm" version="1.1" style="shape-rendering:geometricPrecision; text-rendering:geometricPrecision; image-rendering:optimizeQuality; fill-rule:evenodd; clip-rule:evenodd"
viewBox="0 0 21590 27940"
 xmlns:xlink="http://www.w3.org/1999/xlink">
 <defs>
  <style type="text/css">
   <![CDATA[
    .fil0 {fill:#00A859}
   ]]>
  </style>
 </defs>
 <g id="Capa_x0020_1">
  <metadata id="CorelCorpID_0Corel-Layer"/>
  <g id="_2933244822144">
   <path class="fil0" d="M98 2822c0,447 267,710 644,775 215,37 1601,-34 1659,27 30,31 189,782 211,870l269 1174c104,427 328,1637 400,2110l157 910c155,815 277,1624 433,2441l1188 6710c62,400 129,746 502,907 220,95 1029,54 1324,54l0 18c-156,0 -415,83 -535,126 -169,59 -307,124 -456,209 -140,80 -277,170 -396,273l-174 161c-177,151 -327,360 -453,559 -47,74 -79,135 -124,215 -208,366 -354,881 -354,1358 0,525 66,982 269,1410 154,324 322,593 560,847 115,121 227,233 360,329 443,319 968,569 1526,569 352,0 574,-10 918,-102 108,-29 160,-55 257,-92 96,-36 155,-65 240,-110 222,-118 436,-260 617,-439 299,-295 396,-408 620,-802 438,-771 486,-1865 138,-2693 -343,-817 -923,-1374 -1710,-1687 -109,-44 -410,-131 -547,-131l0 -18c3666,0 7332,-15 10998,0 167,1 229,-9 353,-62 449,-190 454,-734 536,-1164l641 -3642c45,-237 88,-503 132,-736l385 -2182c19,-126 46,-240 66,-367l322 -1829c46,-244 85,-477 129,-720l322 -1829c52,-332 99,-558 -89,-854 -277,-437 -915,-313 -1406,-313 -5264,0 -10527,0 -15791,0 -6,-71 -26,-141 -44,-208 -136,-502 -239,-1014 -359,-1517 -35,-150 -65,-281 -99,-423 -69,-285 -103,-555 -340,-734 -91,-69 -224,-146 -378,-146l-2234 0c-374,0 -687,350 -687,748z"/>
   <path class="fil0" d="M13493 21685c0,632 116,1158 392,1646l143 231c464,656 976,1006 1719,1203 136,35 511,82 650,77 82,-3 80,-15 155,-19 208,-11 248,-10 467,-69 362,-98 680,-233 986,-468 76,-58 130,-106 204,-167 282,-233 621,-710 771,-1078 353,-870 326,-1635 5,-2497 -108,-289 -379,-681 -582,-897 -68,-73 -104,-107 -179,-174 -331,-295 -751,-552 -1178,-647 -322,-71 -611,-113 -956,-75 -447,50 -961,226 -1316,501 -471,365 -720,626 -1000,1217 -137,289 -281,792 -281,1216z"/>
  </g>
 </g>
</svg>
